<?xml version="1.0" encoding="utf-8"?>
<!-- Generator: Adobe Illustrator 19.2.1, SVG Export Plug-In . SVG Version: 6.00 Build 0)  -->
<svg version="1.1" id="layer" xmlns="http://www.w3.org/2000/svg" xmlns:xlink="http://www.w3.org/1999/xlink" x="0px" y="0px"
	 viewBox="0 0 652 652" style="enable-background:new 0 0 652 652;" xml:space="preserve">
<style type="text/css">
	.st0{fill:#356CB5;}
	.st1{fill:#F0AB1E;}
</style>
<path class="st0" d="M227.3,269.2V282c0,2.2,1.4,3.9,4.4,3.9c2.8,0,4.4-1.7,4.4-3.9v-12.8h1.9V282c0,3.6-2.5,5.8-6.4,5.8
	c-3.6,0-6.4-2.2-6.4-5.8v-12.8H227.3z"/>
<path class="st0" d="M246.7,287.3v-18.1h2.8l7.8,13.9l0,0v-13.9h1.7v18.1h-1.4l-9.2-16.1l0,0v16.1H246.7z"/>
<path class="st0" d="M270.3,269.2v18.1h-1.9v-18.1H270.3z"/>
<path class="st0" d="M277.3,269.2h1.9l4.4,14.7l0,0l4.4-14.7h1.9l-5.6,18.1h-1.9L277.3,269.2z"/>
<path class="st0" d="M307.3,269.2v1.7h-8.9v6.1h6.4v1.7h-6.4v6.9h9.4v1.7h-11.4v-18.1H307.3z"/>
<path class="st0" d="M314.8,287.3v-18.1h5.8c3.9,0,6.1,1.7,6.1,4.7c0,2.5-1.4,3.9-3.6,4.7l3.9,8.6h-2.2l-3.6-8.3H317v8.3H314.8z
	 M316.7,277.3h3.6c2.8,0,4.2-1.1,4.2-3.3c0-2.5-1.7-3.1-4.2-3.1h-3.6V277.3z"/>
<path class="st0" d="M343.4,273.7c-0.6-1.7-1.9-3.1-4.2-3.1s-3.3,1.1-3.3,2.8c0,3.9,10.3,3.1,10.3,8.9c0,2.5-1.4,5.3-6.1,5.3
	c-3.9,0-5.6-2.5-6.4-4.7l1.9-0.6c0.8,1.9,1.9,3.6,4.7,3.6s3.9-1.4,3.9-3.3c0-4.7-10.3-3.3-10.3-8.9c0-2.5,2.2-4.7,5.6-4.7
	c2.8,0,5,1.4,5.8,4.4L343.4,273.7z"/>
<path class="st0" d="M355.9,269.2v18.1h-1.9v-18.1H355.9z"/>
<path class="st0" d="M370.1,270.9v16.4h-1.9v-16.4h-5.6v-1.7h12.8v1.7H370.1z"/>
<path class="st0" d="M385.3,279.5l-5.6-10.6h2.2l4.4,8.3l4.4-8.3h2.2l-5.6,10.6v7.5h-2.2V279.5z"/>
<path class="st0" d="M415.6,269c4.4,0,6.9,3.3,6.9,9.2c0,6.1-2.5,9.2-6.9,9.2s-6.9-3.3-6.9-9.2C408.4,272,411.2,269,415.6,269z
	 M415.6,285.9c3.1,0,5-2.5,5-7.5c0-5.3-1.9-7.5-5-7.5s-5,2.5-5,7.5C410.3,283.4,412.3,285.9,415.6,285.9z"/>
<path class="st0" d="M440.3,269.2v1.7h-8.6v6.1h6.4v1.7h-6.4v8.6h-1.9v-18.1H440.3z"/>
<path class="st0" d="M469.2,281.7c-0.8,3.3-2.8,5.6-6.4,5.6c-4.2,0-6.9-3.1-6.9-9.2c0-5.8,2.5-9.2,6.9-9.2c3.3,0,5.3,1.9,6.1,5.3
	l-1.9,0.6c-0.6-2.5-1.9-4.2-4.4-4.2c-2.5,0-4.7,2.5-4.7,7.5c0,5.3,1.9,7.5,5,7.5c2.8,0,3.9-2.2,4.4-4.4L469.2,281.7z"/>
<path class="st0" d="M473.9,287.3l5.6-18.1h3.1l5.6,18.1h-2.2l-1.7-5.6h-6.4l-1.7,5.6H473.9z M478.4,279.8h5.6l-2.5-9.4h-0.3
	L478.4,279.8z"/>
<path class="st0" d="M494.5,287.3v-18.1h1.9v16.4h8.6v1.7H494.5z"/>
<path class="st0" d="M514.2,269.2v18.1h-1.9v-18.1H514.2z"/>
<path class="st0" d="M533.7,269.2v1.7h-8.6v6.1h6.4v1.7h-6.4v8.6h-1.9v-18.1H533.7z"/>
<path class="st0" d="M545.9,269c4.4,0,6.9,3.3,6.9,9.2c0,6.1-2.5,9.2-6.9,9.2s-6.9-3.3-6.9-9.2C538.9,272,541.4,269,545.9,269z
	 M545.9,285.9c3.1,0,5-2.5,5-7.5c0-5.3-1.9-7.5-5-7.5c-3.1,0-5,2.5-5,7.5S542.8,285.9,545.9,285.9z"/>
<path class="st0" d="M560.1,287.3v-18.1h5.8c3.9,0,6.1,1.7,6.1,4.7c0,2.5-1.4,3.9-3.6,4.7l3.9,8.6h-2.2l-3.6-8.3h-4.2v8.3H560.1z
	 M562,277.3h3.6c2.8,0,4.2-1.1,4.2-3.3c0-2.5-1.7-3.1-4.2-3.1H562V277.3z"/>
<path class="st0" d="M580.1,287.3v-18.1h2.8l7.8,13.9l0,0v-13.9h1.7v18.1h-1.7l-9.2-16.1l0,0v16.1H580.1z"/>
<path class="st0" d="M603.9,269.2v18.1H602v-18.1H603.9z"/>
<path class="st0" d="M610.9,287.3l5.6-18.1h3.1l5.6,18.1h-2.2l-1.7-5.6h-6.4l-1.7,5.6H610.9z M615.1,279.8h5.6l-2.5-9.4h-0.3
	L615.1,279.8z"/>
<path class="st0" d="M225.3,383.4v-90.3h15.6v90.3H225.3z"/>
<path class="st0" d="M289.2,293.1h15.3l-18.9,90.3h-15.6l-18.6-90.3h15.3l11.1,62.5h0.3L289.2,293.1z"/>
<path class="st0" d="M314.8,383.4v-90.3h41.4v13.6h-26.1v23.3h20v13.6h-20v26.4h27.8v13.6h-43.1V383.4z"/>
<path class="st0" d="M385.3,383.4h-15.6v-90.3h21.7c17.2,0,26.1,7.5,26.1,26.7c0,14.4-5.6,20.3-10.8,22.8l13.1,40.8h-15.8
	l-11.1-37.2c-1.9,0.3-5.3,0.3-8.1,0.3v36.9H385.3z M385.3,333.7h5.6c8.3,0,11.4-3.1,11.4-13.9c0-10.8-3.1-13.9-11.4-13.9h-5.6V333.7
	z"/>
<path class="st0" d="M459.5,315.4c-0.6-7.8-4.7-10-8.3-10c-5,0-7.8,3.3-7.8,8.9c0,15.3,31.4,22.8,31.4,47.2c0,15-10,23.1-24.4,23.1
	s-22.5-11.4-23.3-25l14.7-2.2c0.6,9.2,4.2,13.6,9.2,13.6c5.3,0,8.9-2.8,8.9-8.3c0-17.8-31.4-22.5-31.4-48.3
	c0-14.4,8.6-22.5,23.9-22.5c12.5,0,20,9.2,21.4,21.9L459.5,315.4z"/>
<path class="st0" d="M488.4,383.4v-90.3h15.6v90.3H488.4z"/>
<path class="st0" d="M521.2,293.1h23.1c16.1,0,24.4,8.6,24.4,27.2v35.8c0,18.6-8.6,27.2-24.4,27.2h-23.1V293.1z M536.4,370.6h5.3
	c8.3,0,11.1-3.1,11.1-12.5v-39.7c0-9.4-2.8-12.5-11.1-12.5h-5.3V370.6z"/>
<path class="st0" d="M583.7,383.4v-90.3h41.4v13.6h-25.8v23.3h20v13.6h-20v26.4H627v13.6h-43.3V383.4z"/>
<path class="st1" d="M27,293.1h15.3v67.2c0,6.7,2.5,9.7,8.1,9.7s8.1-3.3,8.1-9.7v-67.2h15.3v66.7c0,15.3-8.9,23.6-23.3,23.6
	S27,375.1,27,359.8V293.1z"/>
<path class="st1" d="M119.5,322.9v-6.9c0-7.5-3.3-10.8-7.5-10.8c-6.1,0-8.1,3.3-8.1,10v45.3c0,6.7,1.9,10,8.1,10
	c5.6,0,7.5-3.3,7.5-8.9v-10.8h15.3v10.3c0,12.5-7.5,22.8-22.8,22.8c-16.1,0-23.3-10.3-23.3-22.8v-46.1c0-12.5,7.5-22.8,23.3-22.8
	c15.3,0,22.8,11.1,22.8,24.4v6.7h-15.3V322.9z"/>
<path class="st0" d="M169.8,267.6h-20v115.6h20V267.6z M197.6,330.9c6.7-3.1,13.9-10.6,13.9-29.2c0-24.7-11.4-34.2-33.6-34.2h-7.2
	l3.3,20l11.7-18.3h0.3l-7.5,21.9l19.7-11.9l0,0L182,295.6l27.5-3.1v0.3l-26.1,8.9l26.1,9.2v0.3l-27.5-3.6l16.1,16.4l0,0L178.4,312
	l7.5,21.9l0,0l-11.7-18.1l-3.3,20c3.3,0,7.2-0.3,9.4-0.6l14.2,47.8h20.3L197.6,330.9z"/>
</svg>
