<?xml version="1.0" encoding="utf-8"?>
<!-- Generator: Adobe Illustrator 24.0.3, SVG Export Plug-In . SVG Version: 6.00 Build 0)  -->
<svg version="1.1" id="Layer_1" xmlns="http://www.w3.org/2000/svg" xmlns:xlink="http://www.w3.org/1999/xlink" x="0px" y="0px"
	 viewBox="0 0 476.46 154.05" style="enable-background:new 0 0 476.46 154.05;" xml:space="preserve">
<style type="text/css">
	.st0{fill:#FFFFFF;}
	.st1{fill:#FFB71B;}
	.st2{fill:#003DA6;}
</style>
<g>
	<path class="st0" d="M317.46,54.44V42.96c0-9.74-6.43-13.6-16.17-13.6h-16.63v64.33h10.66V68.05h5.33l8.18,25.64h10.84l-9.19-27.3
		C314.89,64.46,317.46,60.6,317.46,54.44z M306.8,52.97c0,4.6-2.39,5.88-5.88,5.88h-5.61V38.73h5.61c3.49,0,5.88,1.29,5.88,5.88
		V52.97z"/>
	<path class="st0" d="M348.89,58.49l-7.54-4.23c-3.03-1.75-4.14-3.22-4.14-6.52v-4.41c0-4.04,2.3-5.51,5.42-5.51
		c3.12,0,5.42,1.47,5.42,5.51v9.01h10.48V41.85c0-9.56-6.99-13.23-15.81-13.23h-0.18c-8.82,0-15.81,3.68-15.81,13.23v8.46
		c0,6.71,3.58,9.65,9.83,13.23l7.44,4.23c3.22,1.75,4.23,3.4,4.23,6.71v5.05c0,3.95-2.3,5.7-5.51,5.7c-3.22,0-5.51-1.75-5.51-5.7
		v-9.74h-10.48V81c0,10.02,6.16,13.42,15.9,13.42h0.18c9.74,0,15.9-3.49,15.9-13.42v-9.28C358.72,64.83,355.05,61.98,348.89,58.49z"
		/>
	<rect x="369.11" y="29.36" class="st0" width="10.66" height="64.33"/>
	<path class="st0" d="M408.07,29.36h-16.45v64.33h16.45c9.74,0,16.18-3.86,16.18-13.6V42.96C424.24,33.22,417.81,29.36,408.07,29.36
		z M413.58,78.43c0,4.6-2.39,5.88-5.88,5.88h-5.42V38.73h5.42c3.49,0,5.88,1.29,5.88,5.88V78.43z"/>
	<polygon class="st0" points="446.02,84.31 446.02,65.75 460.73,65.75 460.73,56.37 446.02,56.37 446.02,38.73 463.57,38.73 
		463.57,29.36 435.36,29.36 435.36,93.69 463.85,93.69 463.85,84.31 	"/>
	<path class="st0" d="M172.73,54.44V42.96c0-9.74-6.43-13.6-16.18-13.6h-16.63v64.33h10.66V68.05h5.33l8.18,25.64h10.84l-9.19-27.3
		C170.16,64.46,172.73,60.6,172.73,54.44z M162.07,52.97c0,4.6-2.39,5.88-5.88,5.88h-5.61V38.73h5.61c3.49,0,5.88,1.29,5.88,5.88
		V52.97z"/>
	<rect x="184.03" y="29.36" class="st0" width="10.66" height="64.33"/>
	<polygon class="st0" points="220.98,77.05 213.53,29.36 202.69,29.36 214.82,93.69 226.58,93.69 238.71,29.36 228.42,29.36 	"/>
	<polygon class="st0" points="257,65.75 271.7,65.75 271.7,56.37 257,56.37 257,38.73 274.55,38.73 274.55,29.36 246.34,29.36 
		246.34,93.69 274.83,93.69 274.83,84.31 257,84.31 	"/>
	<polygon class="st1" points="37.67,142.31 120.93,102.98 120.93,99.1 37.67,118 	"/>
	<polygon class="st0" points="120.93,3.54 8.18,19.68 8.18,124.7 120.93,99.1 	"/>
	<path class="st2" d="M102.11,80.87c0,9.94-6.44,13.62-16.19,13.62h-0.18c-9.75,0-16.19-3.59-16.19-13.62V42.23
		c0-9.57,6.44-13.61,16.19-13.61h0.18c9.75,0,16.19,4.05,16.19,13.61v11.78H91.44V43.89c0-4.51-2.21-5.89-5.61-5.89
		c-3.4,0-5.61,1.38-5.61,5.89v35.33c0,4.51,2.21,5.89,5.61,5.89c3.4,0,5.61-1.38,5.61-5.89V67.53h10.67V80.87z"/>
	<path class="st2" d="M48.72,29.35v49.86c0,4.6-2.02,5.89-5.52,5.89s-5.52-1.29-5.52-5.89V29.35H27v51.52
		c0,10.03,6.25,13.62,16.01,13.62h0.37c9.75,0,16.01-3.68,16.01-13.62V29.35H48.72z"/>
</g>
</svg>
